<svg xmlns="http://www.w3.org/2000/svg" version="1.1" xmlns:xlink="http://www.w3.org/1999/xlink" xmlns:svgjs="http://svgjs.dev/svgjs" width="1000" height="156" viewBox="0 0 1000 156"><g transform="matrix(1,0,0,1,-0.6060606060606233,0.20595606615663087)"><svg viewBox="0 0 396 62" data-background-color="#1f2d5a" preserveAspectRatio="xMidYMid meet" height="156" width="1000" xmlns="http://www.w3.org/2000/svg" xmlns:xlink="http://www.w3.org/1999/xlink"><g id="tight-bounds" transform="matrix(1,0,0,1,0.2400000000000091,-0.07058812746410581)"><svg viewBox="0 0 395.52 62.14117625492821" height="62.14117625492821" width="395.52"><g><svg viewBox="0 0 423.4425975484895 66.52816820414978" height="62.14117625492821" width="395.52"><g transform="matrix(1,0,0,1,0,9.194558702599572)"><svg viewBox="0 0 395.52 48.139050798950635" height="48.139050798950635" width="395.52"><g><svg viewBox="0 0 395.52 48.139050798950635" height="48.139050798950635" width="395.52"><g><svg viewBox="0 0 395.52 48.139050798950635" height="48.139050798950635" width="395.52"><g transform="matrix(1,0,0,1,0,0)"><svg width="395.52" viewBox="7.079999923706055 -36.88999938964844 307.08001708984375 37.380001068115234" height="48.139050798950635" data-palette-color="#fbfbfb"><path d="M29.98-25.17L29.98-25.17Q29.98-23.44 29.57-21.88 29.15-20.31 28.27-18.9 27.39-17.48 25.84-16.44 24.29-15.41 22.22-14.92L22.22-14.92 32.01 0 27.37 0 17.97-14.45 11.25-14.45 11.25 0 7.08 0 7.08-34.69 19.82-34.69Q20.7-34.69 21.41-34.64 22.12-34.59 23.23-34.39 24.34-34.18 25.2-33.83 26.05-33.47 26.99-32.75 27.93-32.03 28.55-31.05 29.17-30.08 29.58-28.56 29.98-27.05 29.98-25.17ZM11.25-31.05L11.25-18.12 17.24-18.12Q18.48-18.12 19.43-18.2 20.39-18.29 21.67-18.66 22.95-19.04 23.79-19.71 24.63-20.39 25.23-21.67 25.83-22.95 25.83-24.71L25.83-24.71Q25.83-25.95 25.51-26.95 25.2-27.95 24.71-28.6 24.22-29.25 23.51-29.72 22.8-30.2 22.14-30.44 21.48-30.69 20.68-30.83 19.87-30.98 19.35-31.02 18.82-31.05 18.24-31.05L18.24-31.05 11.25-31.05ZM49.88-24.58L49.88-24.58Q51.63-24.58 53.04-24.16 54.44-23.73 55.37-23.07 56.3-22.41 56.97-21.35 57.64-20.29 57.99-19.3 58.35-18.31 58.54-16.92 58.74-15.53 58.79-14.5 58.84-13.48 58.84-12.08L58.84-12.08 58.84-10.18 42.26-10.18Q42.26-8.86 42.86-7.56 43.45-6.25 44.54-5.16 45.63-4.08 47.4-3.39 49.17-2.71 51.32-2.71L51.32-2.71Q53.85-2.71 56.81-3.59L56.81-3.59 57.52-0.85Q53.59 0.49 49.8 0.49L49.8 0.49Q47.14 0.49 45.08-0.22 43.02-0.93 41.76-2.06 40.5-3.2 39.69-4.79 38.89-6.37 38.58-7.95 38.28-9.52 38.28-11.28L38.28-11.28Q38.28-13.99 38.94-16.24 39.6-18.48 40.72-20.01 41.84-21.53 43.34-22.58 44.85-23.63 46.49-24.11 48.14-24.58 49.88-24.58ZM49.02-21.12L49.02-21.12Q46.87-21.12 45.32-19.93 43.77-18.75 43.06-16.99 42.36-15.23 42.36-13.21L42.36-13.21 54.95-13.21Q54.95-21.12 49.02-21.12ZM76.41-24.58L76.41-24.58Q76.92-24.58 77.38-24.57 77.83-24.56 78.25-24.51 78.68-24.46 78.99-24.44 79.29-24.41 79.69-24.34 80.1-24.27 80.28-24.23 80.46-24.19 80.89-24.08 81.32-23.97 81.42-23.95 81.51-23.93 81.99-23.78 82.47-23.63 82.54-23.61L82.54-23.61 81.51-20.56Q78.24-21.46 75.75-21.46L75.75-21.46Q74.31-21.46 73.2-21.17 72.09-20.87 71.49-20.46 70.89-20.04 70.52-19.49 70.14-18.95 70.03-18.53 69.92-18.12 69.92-17.72L69.92-17.72Q69.92-16.72 70.95-15.94 71.99-15.16 73.54-14.67 75.09-14.18 76.9-13.51 78.71-12.84 80.26-12.1 81.81-11.35 82.84-10.01 83.88-8.67 83.88-6.91L83.88-6.91Q83.88-5.91 83.63-4.97 83.37-4.03 82.65-3 81.93-1.98 80.79-1.23 79.66-0.49 77.75 0 75.85 0.49 73.38 0.49L73.38 0.49Q69.65 0.49 65.18-1.34L65.18-1.34 66.3-4.37Q68.82-3.44 70.42-3.05 72.02-2.66 73.55-2.66L73.55-2.66Q79.51-2.66 79.51-6.45L79.51-6.45Q79.51-7.28 78.93-7.91 78.34-8.54 77.36-8.95 76.39-9.35 75.15-9.78 73.92-10.21 72.64-10.57 71.36-10.94 70.12-11.54 68.89-12.13 67.91-12.85 66.94-13.57 66.35-14.72 65.77-15.87 65.77-17.31L65.77-17.31Q65.77-18.19 66.05-19.1 66.33-20.02 67.1-21.03 67.87-22.05 69.01-22.81 70.16-23.58 72.08-24.08 73.99-24.58 76.41-24.58ZM101.58-24.58L101.58-24.58Q103.34-24.58 104.74-24.16 106.14-23.73 107.07-23.07 108-22.41 108.67-21.35 109.34-20.29 109.7-19.3 110.05-18.31 110.25-16.92 110.44-15.53 110.49-14.5 110.54-13.48 110.54-12.08L110.54-12.08 110.54-10.18 93.96-10.18Q93.96-8.86 94.56-7.56 95.16-6.25 96.24-5.16 97.33-4.08 99.1-3.39 100.87-2.71 103.02-2.71L103.02-2.71Q105.56-2.71 108.51-3.59L108.51-3.59 109.22-0.85Q105.29 0.49 101.51 0.49L101.51 0.49Q98.85 0.49 96.78-0.22 94.72-0.93 93.46-2.06 92.2-3.2 91.4-4.79 90.59-6.37 90.29-7.95 89.98-9.52 89.98-11.28L89.98-11.28Q89.98-13.99 90.64-16.24 91.3-18.48 92.42-20.01 93.55-21.53 95.05-22.58 96.55-23.63 98.2-24.11 99.85-24.58 101.58-24.58ZM100.72-21.12L100.72-21.12Q98.58-21.12 97.03-19.93 95.48-18.75 94.77-16.99 94.06-15.23 94.06-13.21L94.06-13.21 106.66-13.21Q106.66-21.12 100.72-21.12ZM126.09-24.58L126.09-24.58Q128.77-24.58 130.64-23.96 132.51-23.34 133.52-22.14 134.54-20.95 134.98-19.48 135.41-18.02 135.41-16.11L135.41-16.11 135.41 0 132.58 0 131.66-2.2Q128.7 0.49 124.87 0.49L124.87 0.49Q121.45 0.49 119.08-1.57 116.71-3.64 116.71-6.4L116.71-6.4Q116.71-7.86 117.25-9.03 117.79-10.21 118.8-10.99 119.81-11.77 121.11-12.32 122.4-12.87 124.12-13.16 125.84-13.45 127.58-13.57 129.31-13.7 131.39-13.7L131.39-13.7 131.39-15.6Q131.39-16.43 131.33-17.04 131.26-17.65 130.92-18.51 130.58-19.36 129.99-19.91 129.41-20.46 128.24-20.86 127.07-21.26 125.45-21.26L125.45-21.26Q122.96-21.26 119.01-20.17L119.01-20.17 118.25-23.1Q122.26-24.58 126.09-24.58ZM131.39-5.13L131.39-10.67 129.9-10.67Q128.51-10.67 127.48-10.62 126.45-10.57 125.08-10.34 123.7-10.11 122.82-9.69 121.94-9.28 121.32-8.48 120.69-7.69 120.69-6.59L120.69-6.59Q120.69-5.05 122.24-3.86 123.79-2.66 125.94-2.66L125.94-2.66Q129.09-2.66 131.39-5.13L131.39-5.13ZM147.01-24.12L147.77-22.31Q150.82-24.58 154.5-24.58L154.5-24.58Q157.04-24.58 159.12-23.63L159.12-23.63 157.9-20.43Q155.99-21.17 153.94-21.17L153.94-21.17Q150.89-21.17 148.21-19.48L148.21-19.48 148.21 0 144.2 0 144.2-24.12 147.01-24.12ZM162.53-11.5L162.53-11.5Q162.53-14.36 163.22-16.64 163.9-18.92 165.04-20.37 166.17-21.83 167.71-22.79 169.25-23.75 170.86-24.16 172.47-24.56 174.23-24.56L174.23-24.56Q177.69-24.56 180.99-23.12L180.99-23.12 180.01-20.19Q177.3-21.12 174.72-21.12L174.72-21.12Q173.45-21.12 172.32-20.89 171.2-20.65 170.09-20.04 168.98-19.43 168.19-18.47 167.39-17.5 166.9-15.94 166.42-14.38 166.42-12.35L166.42-12.35Q166.42-10.13 166.93-8.44 167.44-6.74 168.27-5.69 169.1-4.64 170.26-3.98 171.42-3.32 172.6-3.06 173.79-2.81 175.16-2.81L175.16-2.81Q177.45-2.81 179.75-3.61L179.75-3.61 180.72-0.85Q177.26 0.49 173.76 0.49L173.76 0.49Q172.15 0.49 170.68 0.17 169.2-0.15 167.67-0.99 166.15-1.83 165.04-3.13 163.93-4.42 163.23-6.58 162.53-8.74 162.53-11.5ZM198.88-21L198.88-21Q196.03-21 192.44-19.12L192.44-19.12 192.44 0 188.43 0 188.43-36.89 192.44-36.89 192.44-22.29Q196.71-24.56 200.45-24.56L200.45-24.56Q202.06-24.56 203.34-24.15 204.62-23.73 205.45-23.11 206.28-22.49 206.88-21.5 207.48-20.51 207.78-19.64 208.09-18.77 208.25-17.58 208.41-16.38 208.44-15.63 208.48-14.87 208.48-13.84L208.48-13.84 208.48 0 204.38 0 204.38-14.58Q204.38-21 198.88-21ZM219.95 0L219.95-34.69 225.81-34.69 236.94-13.65 248.25-34.69 253.74-34.69 253.74 0 249.59 0 249.59-28.74 238.92-9.94 234.77-9.94 224.1-28.74 224.1 0 219.95 0ZM273.78-24.58L273.78-24.58Q278.79-24.58 282.02-21.39 285.26-18.19 285.26-12.55L285.26-12.55Q285.26-6.57 281.95-3.04 278.64 0.49 273.39 0.49L273.39 0.49Q268.39 0.49 265.21-2.82 262.04-6.13 262.04-11.79L262.04-11.79Q262.04-17.63 265.27-21.11 268.51-24.58 273.78-24.58ZM273.44-21.17L273.44-21.17Q270.44-21.17 268.19-18.85 265.94-16.53 265.94-12.48L265.94-12.48Q265.94-8.45 268.14-5.69 270.34-2.93 273.83-2.93L273.83-2.93Q277.05-2.93 279.2-5.37 281.35-7.81 281.35-11.74L281.35-11.74Q281.35-13.99 280.65-15.82 279.96-17.65 278.82-18.8 277.69-19.95 276.3-20.56 274.9-21.17 273.44-21.17ZM293.07 0L293.07-36.89 297.07-36.89 297.07-22.97Q300.22-24.61 303.52-24.61L303.52-24.61Q304.98-24.61 306.4-24.26 307.81-23.9 309.24-23.01 310.67-22.12 311.74-20.78 312.82-19.43 313.49-17.26 314.16-15.09 314.16-12.35L314.16-12.35Q314.16-6.4 311-2.95 307.84 0.49 302.81 0.49L302.81 0.49Q299.51 0.49 296.34-1.12L296.34-1.12 295.85 0 293.07 0ZM302.15-21.29L302.15-21.29Q299.54-21.29 297.07-20L297.07-20 297.07-3.78Q299.68-2.66 302.22-2.66L302.22-2.66Q303.34-2.66 304.39-2.91 305.44-3.15 306.53-3.8 307.62-4.44 308.42-5.42 309.23-6.4 309.74-8.01 310.25-9.62 310.25-11.65L310.25-11.65Q310.25-13.94 309.72-15.71 309.18-17.48 308.35-18.51 307.52-19.53 306.4-20.19 305.27-20.85 304.25-21.07 303.22-21.29 302.15-21.29Z" opacity="1" transform="matrix(1,0,0,1,0,0)" fill="#fbfbfb" class="undefined-text-0" data-fill-palette-color="primary" id="text-0"></path></svg></g></svg></g></svg></g></svg></g><g transform="matrix(1,0,0,1,406.88447455641307,0)"><svg viewBox="0 0 16.558122992076484 66.52816820414978" height="66.52816820414978" width="16.558122992076484"><g><svg xmlns="http://www.w3.org/2000/svg" xmlns:xlink="http://www.w3.org/1999/xlink" version="1.1" x="0" y="0" viewBox="38.79999923706055 5 22.400001525878906 90" enable-background="new 0 0 100 100" xml:space="preserve" height="66.52816820414978" width="16.558122992076484" class="icon-icon-0" data-fill-palette-color="accent" id="icon-0"><g fill="#15645e" data-fill-palette-color="accent"><path d="M38.8 25.2v58.9h0C39.2 90.2 44 95 50 95s10.8-4.8 11.2-10.9h0V25.2H38.8zM57.5 29.1V55h-15V29.1H57.5z" fill="#15645e" data-fill-palette-color="accent"></path><circle cx="45.5" cy="20.5" r="2.5" fill="#15645e" data-fill-palette-color="accent"></circle><circle cx="55.5" cy="17.5" r="3.5" fill="#15645e" data-fill-palette-color="accent"></circle><circle cx="46.5" cy="9.5" r="4.5" fill="#15645e" data-fill-palette-color="accent"></circle></g></svg></g></svg></g></svg></g><defs></defs></svg><rect width="395.52" height="62.14117625492821" fill="none" stroke="none" visibility="hidden"></rect></g></svg></g></svg>